<?xml version="1.0" standalone="no"?>
<!DOCTYPE svg PUBLIC "-//W3C//DTD SVG 20010904//EN"
 "http://www.w3.org/TR/2001/REC-SVG-20010904/DTD/svg10.dtd">
<svg version="1.0" xmlns="http://www.w3.org/2000/svg"
 width="300.000000pt" height="435.000000pt" viewBox="0 0 300.000000 435.000000"
 preserveAspectRatio="xMidYMid meet">
<metadata>
Created by potrace 1.10, written by Peter Selinger 2001-2011
</metadata>
<g transform="translate(0.000000,435.000000) scale(0.100000,-0.100000)"
fill="#000000" stroke="none">
<path d="M75 4340 c-11 -4 -31 -20 -45 -35 l-25 -27 -3 -2091 c-2 -1553 1
-2099 9 -2120 6 -15 24 -36 39 -47 28 -20 50 -20 1445 -20 1563 0 1456 -5
1489 64 15 31 16 209 16 2111 0 2294 5 2114 -63 2155 -31 20 -61 20 -1437 19
-773 0 -1414 -4 -1425 -9z m2853 -20 c67 -41 62 118 62 -2151 0 -1887 -1
-2064 -16 -2095 -33 -69 73 -64 -1479 -64 -1385 0 -1407 0 -1435 20 -15 11
-33 32 -39 47 -8 21 -11 565 -9 2110 l3 2081 25 27 c14 15 34 31 45 35 11 5
648 9 1415 9 1382 1 1395 1 1428 -19z"/>
<path d="M219 4108 c-29 -73 -65 -161 -81 -196 l-28 -63 31 3 c28 3 34 9 51
56 l19 52 93 0 93 0 20 -52 c17 -45 25 -54 48 -56 23 -3 27 -1 21 15 -4 10
-39 98 -79 196 l-71 177 -32 0 c-31 0 -32 -1 -85 -132z m161 -105 c0 -2 -34
-3 -76 -3 -69 0 -75 2 -69 18 4 9 21 54 37 100 l31 83 38 -98 c22 -54 39 -99
39 -100z"/>
<path d="M297 3787 c-2 -6 -42 -59 -87 -117 -95 -121 -120 -166 -120 -213 0
-41 30 -82 65 -91 33 -8 77 15 106 56 34 47 34 20 1 -66 l-30 -76 73 0 73 0
-29 68 c-39 93 -39 118 2 69 41 -50 70 -61 114 -43 87 37 71 122 -56 281 -34
43 -72 93 -84 111 -14 20 -25 29 -28 21z m85 -162 c36 -47 74 -105 84 -130 16
-43 16 -46 -1 -65 -24 -26 -38 -25 -86 7 -53 35 -106 35 -158 -1 -72 -50 -115
-2 -72 78 28 54 141 196 155 196 6 0 41 -38 78 -85z"/>
<path d="M1477 3417 c-31 -97 -208 -353 -398 -573 -413 -479 -526 -685 -517
-939 3 -94 6 -107 41 -178 47 -96 115 -165 202 -208 164 -80 388 -34 540 112
62 60 64 60 76 38 16 -32 6 -159 -20 -234 -43 -123 -122 -265 -177 -321 l-54
-53 323 -3 c177 -2 323 -2 325 -2 2 1 -18 24 -45 51 -113 114 -221 372 -211
500 7 78 20 86 65 39 49 -50 108 -90 191 -129 58 -27 80 -32 168 -35 125 -5
187 11 268 69 185 133 238 376 134 622 -70 166 -191 339 -454 647 -87 102
-193 232 -236 290 -78 105 -188 304 -188 340 0 37 -16 20 -33 -33z m33 -132
c0 -34 87 -199 148 -281 32 -43 115 -139 183 -212 360 -385 434 -489 499 -699
37 -119 21 -278 -37 -372 -90 -145 -253 -205 -413 -151 -123 41 -234 127 -278
214 l-19 40 -33 -45 c-18 -24 -39 -61 -48 -82 l-15 -37 -29 57 c-16 32 -39 68
-51 81 l-21 23 -14 -28 c-48 -95 -141 -173 -257 -215 -85 -31 -202 -31 -271 0
-93 42 -178 151 -203 262 -15 65 -13 177 4 245 21 84 114 266 182 356 32 42
131 155 220 250 266 284 366 423 413 570 16 47 26 66 31 57 5 -7 9 -22 9 -33z
m-196 -234 c-31 -44 -67 -90 -81 -103 -14 -13 9 23 51 80 42 56 79 102 81 102
3 0 -21 -36 -51 -79z m408 -41 c41 -52 81 -102 89 -110 33 -36 52 -60 46 -60
-19 0 -185 197 -213 253 -20 40 -14 33 78 -83z m-204 -1387 c-2 -12 -11 -17
-23 -15 -25 5 -29 8 -20 21 11 19 47 13 43 -6z m-4 -163 c-6 -73 -5 -77 35
-157 23 -45 62 -104 87 -132 48 -54 47 -61 -5 -35 -45 23 -222 23 -275 0 -21
-9 -40 -16 -42 -16 -2 0 18 27 45 60 72 90 121 191 120 249 0 25 -4 55 -8 66
-5 13 -2 32 7 53 l16 33 13 -23 c8 -16 11 -47 7 -98z"/>
<path d="M1439 3139 c-72 -138 -161 -252 -403 -514 -238 -258 -339 -428 -366
-613 -17 -120 22 -258 95 -340 107 -119 286 -128 448 -23 85 56 119 93 143
158 10 26 19 50 21 52 7 9 75 -65 94 -101 11 -21 21 -38 24 -38 3 0 13 17 24
37 19 37 87 111 94 102 2 -2 12 -26 22 -54 25 -70 93 -133 200 -186 82 -41 94
-44 169 -44 94 0 149 20 215 80 74 67 131 230 116 329 -19 122 -104 307 -202
438 -32 42 -138 164 -237 272 -240 263 -349 408 -371 499 -4 15 -11 27 -15 27
-12 0 8 -78 35 -137 45 -99 276 -427 438 -621 155 -186 234 -333 257 -476 31
-194 -87 -386 -237 -386 -135 0 -263 103 -339 275 -16 35 -31 65 -34 65 -3 0
-13 -12 -22 -27 -9 -16 -37 -50 -62 -77 l-46 -49 -26 24 c-15 13 -46 50 -70
83 -36 48 -45 55 -50 40 -24 -70 -86 -176 -133 -226 -67 -73 -116 -99 -198
-106 -150 -12 -257 106 -270 298 -12 165 63 326 268 580 179 220 352 467 414
590 32 64 58 140 51 148 -2 2 -24 -34 -47 -79z m653 -733 c50 -67 93 -133 76
-116 -20 19 -166 220 -152 209 10 -8 44 -50 76 -93z m-1197 -23 c-41 -53 -52
-66 -40 -43 18 33 69 100 72 96 3 -2 -12 -26 -32 -53z"/>
<path d="M1476 3052 c-66 -171 -68 -197 -26 -363 12 -45 27 -121 34 -168 l13
-86 12 85 c7 47 24 135 38 195 31 136 27 191 -19 302 l-34 81 -18 -46z m42
-121 c7 -21 12 -56 12 -77 0 -56 -23 -155 -35 -151 -13 5 -33 89 -34 146 -1
53 18 121 34 121 7 0 17 -17 23 -39z"/>
<path d="M1370 2914 c-12 -19 -21 -36 -19 -37 2 -1 14 -7 26 -14 20 -12 21
-10 21 38 1 27 -1 49 -3 49 -2 0 -13 -16 -25 -36z"/>
<path d="M1595 2900 c0 -40 8 -47 34 -31 11 7 10 14 -5 40 -24 41 -30 39 -29
-9z"/>
<path d="M1620 2818 c-11 -11 -26 -31 -31 -45 -9 -24 -39 -205 -35 -210 8 -9
117 155 122 183 13 71 -16 109 -56 72z"/>
<path d="M1322 2818 c-16 -16 -15 -61 1 -101 14 -33 117 -174 117 -160 -1 40
-42 230 -55 249 -17 26 -44 31 -63 12z"/>
<path d="M1258 2750 c-16 -21 -28 -40 -28 -42 0 -1 16 -3 35 -3 l34 0 -6 40
c-3 22 -6 41 -7 42 -1 1 -13 -16 -28 -37z"/>
<path d="M1700 2779 c0 -9 -3 -30 -6 -47 -6 -31 -6 -31 24 -20 32 12 32 19 -2
63 -13 17 -15 17 -16 4z"/>
<path d="M1222 2657 c-31 -33 -27 -45 12 -44 70 2 188 -117 216 -217 15 -55
34 -62 24 -8 -12 72 -61 160 -126 227 -69 71 -92 78 -126 42z"/>
<path d="M1660 2644 c-22 -20 -57 -62 -79 -94 -45 -68 -81 -184 -63 -202 9 -9
12 -6 12 12 0 64 95 202 163 236 16 9 47 18 69 22 l40 7 -22 28 c-31 39 -70
36 -120 -9z"/>
<path d="M1152 2550 c-34 -21 -71 -87 -72 -127 0 -48 31 -103 75 -128 51 -30
65 -31 99 -4 43 34 26 99 -24 86 -11 -3 -20 -1 -20 4 0 17 43 31 75 25 70 -13
137 -138 115 -215 -19 -67 -52 -91 -125 -91 -59 0 -88 -15 -80 -41 4 -10 2
-19 -4 -19 -6 0 -13 11 -17 25 -10 39 17 68 80 88 68 22 88 48 89 117 1 38 -4
56 -19 71 l-21 20 0 -31 c0 -41 -30 -70 -80 -77 -83 -11 -154 59 -161 158 -2
32 -6 59 -9 59 -21 0 -167 -213 -213 -313 -47 -102 -60 -157 -60 -244 l1 -68
30 63 c22 44 42 70 70 89 51 34 115 36 154 5 15 -12 31 -19 36 -16 15 9 10
133 -6 169 -19 39 -55 60 -89 51 -33 -8 -34 8 -2 29 22 15 27 15 55 0 30 -15
31 -15 31 7 1 19 5 16 23 -17 18 -34 21 -55 21 -135 -1 -120 -16 -248 -32
-277 -14 -26 -61 -53 -92 -53 -30 0 -69 28 -86 63 -36 69 48 139 110 92 14
-11 23 -12 33 -4 24 20 15 48 -21 65 -76 37 -165 -22 -173 -113 -13 -146 189
-199 267 -71 21 35 27 103 10 113 -6 4 -8 11 -4 16 3 6 16 4 31 -6 24 -16 26
-16 62 13 25 20 37 38 39 61 4 35 22 33 22 -3 0 -37 -58 -142 -106 -191 -51
-53 -133 -95 -184 -95 -49 0 -121 38 -145 77 -29 46 -36 40 -20 -14 20 -67 76
-117 147 -133 83 -19 154 5 222 73 77 79 117 154 162 306 3 8 20 -11 40 -46
20 -33 53 -80 75 -104 l39 -44 29 35 c17 19 47 63 67 97 34 58 54 72 54 37 0
-25 56 -139 98 -202 75 -109 145 -151 254 -152 64 0 70 2 107 36 41 36 81 106
81 139 0 13 -8 7 -26 -21 -38 -58 -80 -84 -140 -84 -103 0 -215 87 -274 213
-34 71 -36 84 -14 115 12 17 19 20 34 12 10 -5 30 -10 43 -10 20 0 26 -6 31
-32 3 -17 2 -36 -3 -41 -13 -13 -62 19 -68 44 -8 28 -33 23 -33 -6 0 -17 14
-40 41 -66 l40 -39 26 20 c30 24 39 20 24 -8 -16 -30 -14 -58 9 -102 40 -78
157 -106 221 -53 69 59 73 137 9 204 -30 32 -44 39 -74 39 -43 0 -96 -24 -96
-44 0 -24 26 -39 49 -27 77 42 146 -52 91 -122 -27 -34 -78 -44 -118 -23 -45
23 -62 54 -62 109 0 27 -7 77 -16 111 -19 74 -13 159 16 216 20 38 46 57 33
24 -5 -14 -3 -14 26 1 30 15 35 15 57 0 13 -8 24 -22 24 -30 0 -17 -16 -20
-25 -5 -17 28 -66 -2 -95 -59 -13 -25 -18 -147 -6 -158 3 -3 14 1 25 11 26 24
80 37 120 30 46 -9 116 -80 132 -133 25 -85 39 -9 18 105 -19 107 -109 272
-230 424 l-44 55 -6 -66 c-6 -71 -26 -107 -77 -141 -66 -44 -165 -7 -165 62
l0 33 -19 -23 c-24 -30 -24 -105 1 -146 14 -22 31 -34 62 -42 24 -7 49 -15 55
-19 21 -15 32 -48 23 -70 -10 -28 -23 -31 -14 -4 8 27 -21 41 -85 41 -28 0
-60 5 -72 11 -40 22 -62 130 -39 192 28 73 112 124 164 99 21 -10 22 -10 2
-17 -60 -20 -70 -51 -30 -91 22 -22 33 -25 62 -21 66 11 103 65 103 151 0 48
-4 60 -31 91 -43 48 -97 62 -155 40 -107 -41 -177 -199 -200 -447 -4 -47 -2
-88 4 -107 8 -24 7 -37 -5 -62 l-15 -31 -19 32 c-16 25 -17 35 -8 52 14 26 6
162 -15 280 -40 219 -184 351 -304 278z m151 -52 c30 -22 69 -84 45 -75 -69
29 -89 30 -115 11 -45 -34 -50 -50 -24 -78 44 -47 -6 -59 -56 -13 -31 28 -38
75 -19 121 27 65 103 80 169 34z m526 -4 c27 -22 31 -32 31 -74 0 -38 -6 -55
-26 -79 -28 -33 -61 -41 -71 -15 -3 8 4 25 16 38 27 29 27 40 -5 65 -29 23
-65 27 -95 10 -42 -22 -43 -1 -3 39 35 36 48 42 82 42 29 0 49 -7 71 -26z
m-779 -175 c7 -16 11 -31 9 -33 -2 -2 -27 -6 -56 -8 -50 -5 -52 -4 -41 16 42
79 63 86 88 25z m970 -26 c0 -9 -16 -13 -45 -13 -25 0 -45 3 -45 6 0 4 10 22
22 42 l21 35 24 -29 c12 -16 23 -35 23 -41z m-854 -72 c17 -5 50 -5 73 -1 55
10 52 -6 -6 -31 -27 -11 -56 -27 -65 -36 -15 -14 -17 -12 -27 24 -11 38 -13
53 -8 53 1 0 16 -4 33 -9z m680 -35 c-4 -16 -8 -31 -9 -33 -4 -3 -127 56 -127
61 0 1 32 2 71 2 l70 -1 -5 -29z m-901 4 c10 -11 26 -20 36 -20 27 0 60 -49
57 -84 -3 -30 -3 -30 -60 -27 -45 2 -67 -3 -98 -20 -22 -12 -42 -20 -45 -17
-7 7 40 134 61 166 18 27 26 28 49 2z m1167 -37 c29 -54 52 -122 45 -129 -2
-3 -21 5 -41 17 -30 17 -48 21 -101 17 -41 -2 -65 0 -66 7 -6 49 22 95 57 95
14 0 34 9 46 20 12 11 25 20 28 20 4 0 18 -21 32 -47z m-672 -81 c0 -80 -11
-94 -48 -59 -32 31 -44 33 -62 12 -16 -20 -44 -19 -61 1 -11 14 -18 10 -54
-32 -49 -56 -78 -57 -73 -2 3 30 6 33 34 33 18 1 38 6 46 13 8 7 37 15 64 18
61 8 99 27 120 59 23 36 34 22 34 -43z m197 -1 c12 -6 35 -11 52 -11 38 0 44
-10 21 -39 l-17 -24 -32 23 -32 22 -30 -28 c-25 -24 -31 -26 -39 -14 -11 17
-13 113 -3 123 4 4 18 -3 32 -17 14 -13 36 -29 48 -35z"/>
<path d="M1482 2315 c-8 -18 -9 -32 -2 -45 5 -10 10 -31 10 -47 1 -38 15 -11
24 43 4 26 1 47 -7 58 -12 16 -14 16 -25 -9z"/>
<path d="M938 1898 c-27 -22 -30 -52 -7 -81 26 -34 68 -35 103 -4 27 23 47 87
28 87 -11 0 -17 -6 -51 -50 -16 -21 -21 -22 -35 -11 -21 17 -21 41 0 41 19 0
13 24 -7 28 -8 1 -22 -3 -31 -10z"/>
<path d="M1924 1876 c6 -48 40 -86 77 -86 66 0 100 86 44 112 -34 16 -59 -5
-30 -25 20 -15 13 -37 -12 -37 -9 0 -31 17 -50 38 l-34 37 5 -39z"/>
<path d="M1470 1310 c-13 -34 -35 -77 -50 -98 l-27 -37 98 0 c88 0 96 2 88 17
-5 9 -13 19 -18 22 -5 3 -21 40 -36 81 -15 41 -29 75 -30 75 -1 0 -13 -27 -25
-60z"/>
<path d="M2620 1052 c0 -4 4 -12 10 -18 10 -10 50 -120 50 -137 0 -6 -17 8
-38 31 -32 35 -45 42 -76 42 -49 0 -86 -36 -86 -82 1 -50 30 -103 120 -218 45
-58 85 -111 87 -118 4 -9 10 -6 22 10 8 13 48 65 89 117 118 151 139 215 87
266 -39 40 -85 34 -135 -17 -22 -23 -40 -37 -40 -30 0 16 41 125 51 137 19 20
6 25 -66 25 -41 0 -75 -4 -75 -8z m-2 -152 c33 -23 49 -29 85 -26 26 1 52 9
62 19 69 70 130 24 86 -65 -32 -67 -140 -200 -159 -196 -23 4 -151 176 -164
220 -10 33 -9 41 7 58 24 27 35 25 83 -10z"/>
<path d="M2506 478 c5 -7 42 -96 84 -198 73 -178 77 -185 105 -188 30 -2 30
-2 111 198 l81 200 -28 0 c-24 0 -30 -7 -51 -60 l-23 -61 -89 3 -90 3 -22 55
c-19 49 -25 55 -54 58 -25 3 -30 0 -24 -10z m264 -147 c0 -3 -13 -39 -29 -80
-17 -42 -33 -85 -37 -96 -7 -23 -2 -32 -49 90 -15 39 -29 75 -31 80 -3 6 25
10 71 10 41 0 75 -2 75 -4z"/>
</g>
</svg>
